<svg xmlns="http://www.w3.org/2000/svg" xmlns:xlink="http://www.w3.org/1999/xlink" xmlns:lucid="lucid" width="1314.88" height="501"><g transform="translate(-22.55887430870156 -939.5)" lucid:page-tab-id="0_0"><path d="M43.06 968a8 8 0 0 1 8-8h384a8 8 0 0 1 8 8v280a8 8 0 0 1-8 8h-384a8 8 0 0 1-8-8z" fill="#fff"/><path d="M43.06 968a8 8 0 0 1 8-8h384a8 8 0 0 1 8 8v280a8 8 0 0 1-8 8h-384a8 8 0 0 1-8-8zM43.06 1000h400M146.12 1000v256M321.27 1000v256" stroke="#3a414a" fill="none"/><use xlink:href="#a" transform="matrix(1,0,0,1,53.05887430870156,960) translate(151.075 23.6)"/><use xlink:href="#b" transform="matrix(1,0,0,1,48.05887430870156,1002.5) translate(35 17.1)"/><use xlink:href="#c" transform="matrix(1,0,0,1,151.12057059208144,1002.5) translate(12.150000000000006 17.1)"/><use xlink:href="#d" transform="matrix(1,0,0,1,326.2680176570624,1002.5) translate(36.525 17.1)"/><use xlink:href="#e" transform="matrix(1,0,0,1,151.12057059208144,1034.5) translate(41.625 17.1)"/><use xlink:href="#d" transform="matrix(1,0,0,1,326.2680176570624,1034.5) translate(36.525 17.1)"/><use xlink:href="#f" transform="matrix(1,0,0,1,151.12057059208144,1066.5) translate(42.05 17.1)"/><use xlink:href="#d" transform="matrix(1,0,0,1,326.2680176570624,1066.5) translate(36.525 17.1)"/><use xlink:href="#g" transform="matrix(1,0,0,1,151.12057059208144,1098.5) translate(50.025 17.1)"/><use xlink:href="#d" transform="matrix(1,0,0,1,326.2680176570624,1098.5) translate(36.525 17.1)"/><use xlink:href="#h" transform="matrix(1,0,0,1,151.12057059208144,1130.5) translate(67.55 17.1)"/><use xlink:href="#d" transform="matrix(1,0,0,1,326.2680176570624,1130.5) translate(36.525 17.1)"/><use xlink:href="#i" transform="matrix(1,0,0,1,151.12057059208144,1162.5) translate(63.575 17.1)"/><use xlink:href="#d" transform="matrix(1,0,0,1,326.2680176570624,1162.5) translate(36.525 17.1)"/><use xlink:href="#j" transform="matrix(1,0,0,1,151.12057059208144,1194.5) translate(36.55 17.1)"/><use xlink:href="#d" transform="matrix(1,0,0,1,326.2680176570624,1194.5) translate(36.525 17.1)"/><use xlink:href="#k" transform="matrix(1,0,0,1,151.12057059208144,1226.5) translate(57 17.1)"/><use xlink:href="#d" transform="matrix(1,0,0,1,326.2680176570624,1226.5) translate(36.525 17.1)"/><path d="M463.56 1240.33h78.05a12 12 0 0 0 12-12v-15.83" stroke="#333" fill="none"/><path d="M453.56 1250.33v-20M443.56 1240.33h20M463.56 1250.33v-20" stroke="#333" fill="#fff"/><path d="M563.6 1192.72l-10 20-10-20" stroke="#333" fill="#fff" fill-opacity="0"/><path d="M553.6 1192.72v20M543.6 1212.72h20" stroke="#333" fill="#fff"/><path d="M686.3 1228a8 8 0 0 1 8-8h384a8 8 0 0 1 8 8v184a8 8 0 0 1-8 8h-384a8 8 0 0 1-8-8z" fill="#fff"/><path d="M686.3 1228a8 8 0 0 1 8-8h384a8 8 0 0 1 8 8v184a8 8 0 0 1-8 8h-384a8 8 0 0 1-8-8zM686.3 1260h400M789.37 1260v160M964.5 1260v160" stroke="#3a414a" fill="none"/><use xlink:href="#l" transform="matrix(1,0,0,1,696.3039581217522,1220) translate(139.625 23.6)"/><use xlink:href="#m" transform="matrix(1,0,0,1,691.3039581217522,1262.5) translate(13.524999999999999 17.1)"/><use xlink:href="#n" transform="matrix(1,0,0,1,691.3039581217522,1262.5) translate(47.525 17.1)"/><use xlink:href="#o" transform="matrix(1,0,0,1,794.3656544051321,1262.5) translate(28.124999999999993 17.1)"/><use xlink:href="#d" transform="matrix(1,0,0,1,969.513101470113,1262.5) translate(36.525 17.1)"/><use xlink:href="#m" transform="matrix(1,0,0,1,691.3039581217522,1294.5) translate(13.524999999999999 17.1)"/><use xlink:href="#p" transform="matrix(1,0,0,1,691.3039581217522,1294.5) translate(47.525 17.1)"/><use xlink:href="#q" transform="matrix(1,0,0,1,794.3656544051321,1294.5) translate(33.599999999999994 17.1)"/><use xlink:href="#d" transform="matrix(1,0,0,1,969.513101470113,1294.5) translate(36.525 17.1)"/><use xlink:href="#r" transform="matrix(1,0,0,1,794.3656544051321,1326.5) translate(49.525 17.1)"/><use xlink:href="#d" transform="matrix(1,0,0,1,969.513101470113,1326.5) translate(36.525 17.1)"/><use xlink:href="#s" transform="matrix(1,0,0,1,794.3656544051321,1358.5) translate(62.55 17.1)"/><use xlink:href="#d" transform="matrix(1,0,0,1,969.513101470113,1358.5) translate(36.525 17.1)"/><use xlink:href="#t" transform="matrix(1,0,0,1,794.3656544051321,1390.5) translate(52.025 17.1)"/><use xlink:href="#d" transform="matrix(1,0,0,1,969.513101470113,1390.5) translate(36.525 17.1)"/><path d="M480 968a8 8 0 0 1 8-8h384a8 8 0 0 1 8 8v216a8 8 0 0 1-8 8H488a8 8 0 0 1-8-8z" fill="#fff"/><path d="M480 968a8 8 0 0 1 8-8h384a8 8 0 0 1 8 8v216a8 8 0 0 1-8 8H488a8 8 0 0 1-8-8zM480 1000h400M583.06 1000v192M758.2 1000v192" stroke="#3a414a" fill="none"/><use xlink:href="#u" transform="matrix(1,0,0,1,490,960) translate(167.05 23.6)"/><use xlink:href="#b" transform="matrix(1,0,0,1,485,1002.5) translate(35 17.1)"/><use xlink:href="#o" transform="matrix(1,0,0,1,588.0616962833799,1002.5) translate(28.124999999999993 17.1)"/><use xlink:href="#d" transform="matrix(1,0,0,1,763.2091433483608,1002.5) translate(36.525 17.1)"/><use xlink:href="#v" transform="matrix(1,0,0,1,588.0616962833799,1034.5) translate(64.025 17.1)"/><use xlink:href="#d" transform="matrix(1,0,0,1,763.2091433483608,1034.5) translate(36.525 17.1)"/><use xlink:href="#w" transform="matrix(1,0,0,1,588.0616962833799,1066.5) translate(50.025 17.1)"/><use xlink:href="#d" transform="matrix(1,0,0,1,763.2091433483608,1066.5) translate(36.525 17.1)"/><use xlink:href="#x" transform="matrix(1,0,0,1,588.0616962833799,1098.5) translate(64.525 17.1)"/><use xlink:href="#d" transform="matrix(1,0,0,1,763.2091433483608,1098.5) translate(36.525 17.1)"/><use xlink:href="#y" transform="matrix(1,0,0,1,588.0616962833799,1130.5) translate(64.05 17.1)"/><use xlink:href="#d" transform="matrix(1,0,0,1,763.2091433483608,1130.5) translate(36.525 17.1)"/><use xlink:href="#z" transform="matrix(1,0,0,1,485,1162.5) translate(35.525 17.1)"/><use xlink:href="#c" transform="matrix(1,0,0,1,588.0616962833799,1162.5) translate(12.150000000000006 17.1)"/><use xlink:href="#d" transform="matrix(1,0,0,1,763.2091433483608,1162.5) translate(36.525 17.1)"/><path d="M916.94 968a8 8 0 0 1 8-8h384a8 8 0 0 1 8 8v88a8 8 0 0 1-8 8h-384a8 8 0 0 1-8-8z" fill="#fff"/><path d="M916.94 968a8 8 0 0 1 8-8h384a8 8 0 0 1 8 8v88a8 8 0 0 1-8 8h-384a8 8 0 0 1-8-8zM916.94 1000h400M1020 1000v64M1195.15 1000v64" stroke="#3a414a" fill="none"/><use xlink:href="#A" transform="matrix(1,0,0,1,926.9411256912985,960) translate(172.525 23.6)"/><use xlink:href="#b" transform="matrix(1,0,0,1,921.9411256912985,1002.5) translate(35 17.1)"/><use xlink:href="#q" transform="matrix(1,0,0,1,1025.0028219746782,1002.5) translate(33.599999999999994 17.1)"/><use xlink:href="#d" transform="matrix(1,0,0,1,1200.1502690396592,1002.5) translate(36.525 17.1)"/><use xlink:href="#B" transform="matrix(1,0,0,1,1025.0028219746782,1034.5) translate(38.099999999999994 17.1)"/><use xlink:href="#d" transform="matrix(1,0,0,1,1200.1502690396592,1034.5) translate(36.525 17.1)"/><path d="M900.5 1144.17h23.42a12 12 0 0 1 12 12v43.33" stroke="#333" fill="none"/><path d="M890.5 1154.17v-20M880.5 1144.17h20M900.5 1154.17v-20" stroke="#333" fill="#fff"/><path d="M925.92 1219.28l10-20 10 20" stroke="#333" fill="#fff" fill-opacity="0"/><path d="M935.92 1219.28v-20M945.92 1199.28h-20" stroke="#333" fill="#fff"/><path d="M1039.08 1084.5v57.18a.32.32 0 0 0 .33.32.32.32 0 0 1 .33.32V1180" stroke="#333" fill="none"/><path d="M1029.08 1074.5h20M1039.08 1064.5v20M1029.08 1084.5h20" stroke="#333" fill="#fff"/><path d="M1029.73 1219.28l10-20 10 20" stroke="#333" fill="#fff" fill-opacity="0"/><path d="M1039.73 1219.28v-20M1049.73 1189.28c0 5.52-4.48 10-10 10-5.53 0-10-4.48-10-10 0-5.53 4.47-10 10-10 5.52 0 10 4.47 10 10" stroke="#333" fill="#fff"/><defs><path fill="#3a414a" d="M212-179c-10-28-35-45-73-45-59 0-87 40-87 99 0 60 29 101 89 101 43 0 62-24 78-52l27 14C228-24 195 4 139 4 59 4 22-46 18-125c-6-104 99-153 187-111 19 9 31 26 39 46" id="C"/><path fill="#3a414a" d="M84 4C-5 8 30-112 23-190h32v120c0 31 7 50 39 49 72-2 45-101 50-169h31l1 190h-30c-1-10 1-25-2-33-11 22-28 36-60 37" id="D"/><path fill="#3a414a" d="M135-143c-3-34-86-38-87 0 15 53 115 12 119 90S17 21 10-45l28-5c4 36 97 45 98 0-10-56-113-15-118-90-4-57 82-63 122-42 12 7 21 19 24 35" id="E"/><path fill="#3a414a" d="M59-47c-2 24 18 29 38 22v24C64 9 27 4 27-40v-127H5v-23h24l9-43h21v43h35v23H59v120" id="F"/><path fill="#3a414a" d="M100-194c62-1 85 37 85 99 1 63-27 99-86 99S16-35 15-95c0-66 28-99 85-99zM99-20c44 1 53-31 53-75 0-43-8-75-51-75s-53 32-53 75 10 74 51 75" id="G"/><path fill="#3a414a" d="M210-169c-67 3-38 105-44 169h-31v-121c0-29-5-50-35-48C34-165 62-65 56 0H25l-1-190h30c1 10-1 24 2 32 10-44 99-50 107 0 11-21 27-35 58-36 85-2 47 119 55 194h-31v-121c0-29-5-49-35-48" id="H"/><path fill="#3a414a" d="M100-194c63 0 86 42 84 106H49c0 40 14 67 53 68 26 1 43-12 49-29l28 8c-11 28-37 45-77 45C44 4 14-33 15-96c1-61 26-98 85-98zm52 81c6-60-76-77-97-28-3 7-6 17-6 28h103" id="I"/><path fill="#3a414a" d="M114-163C36-179 61-72 57 0H25l-1-190h30c1 12-1 29 2 39 6-27 23-49 58-41v29" id="J"/><g id="a"><use transform="matrix(0.05,0,0,0.05,0,0)" xlink:href="#C"/><use transform="matrix(0.05,0,0,0.05,12.950000000000001,0)" xlink:href="#D"/><use transform="matrix(0.05,0,0,0.05,22.950000000000003,0)" xlink:href="#E"/><use transform="matrix(0.05,0,0,0.05,31.950000000000003,0)" xlink:href="#F"/><use transform="matrix(0.05,0,0,0.05,36.95,0)" xlink:href="#G"/><use transform="matrix(0.05,0,0,0.05,46.95,0)" xlink:href="#H"/><use transform="matrix(0.05,0,0,0.05,61.900000000000006,0)" xlink:href="#I"/><use transform="matrix(0.05,0,0,0.05,71.9,0)" xlink:href="#J"/></g><path fill="#3a414a" d="M30-248c87 1 191-15 191 75 0 78-77 80-158 76V0H30v-248zm33 125c57 0 124 11 124-50 0-59-68-47-124-48v98" id="K"/><path fill="#3a414a" d="M194 0L95-120 63-95V0H30v-248h33v124l119-124h40L117-140 236 0h-42" id="L"/><g id="b"><use transform="matrix(0.05,0,0,0.05,0,0)" xlink:href="#K"/><use transform="matrix(0.05,0,0,0.05,12,0)" xlink:href="#L"/></g><path fill="#3a414a" d="M190 0L58-211 59 0H30v-248h39L202-35l-2-213h31V0h-41" id="M"/><path fill="#3a414a" d="M115-194c53 0 69 39 70 98 0 66-23 100-70 100C84 3 66-7 56-30L54 0H23l1-261h32v101c10-23 28-34 59-34zm-8 174c40 0 45-34 45-75 0-40-5-75-45-74-42 0-51 32-51 76 0 43 10 73 51 73" id="N"/><g id="c"><use transform="matrix(0.05,0,0,0.05,0,0)" xlink:href="#C"/><use transform="matrix(0.05,0,0,0.05,12.950000000000001,0)" xlink:href="#D"/><use transform="matrix(0.05,0,0,0.05,22.950000000000003,0)" xlink:href="#E"/><use transform="matrix(0.05,0,0,0.05,31.950000000000003,0)" xlink:href="#F"/><use transform="matrix(0.05,0,0,0.05,36.95,0)" xlink:href="#G"/><use transform="matrix(0.05,0,0,0.05,46.95,0)" xlink:href="#H"/><use transform="matrix(0.05,0,0,0.05,61.900000000000006,0)" xlink:href="#I"/><use transform="matrix(0.05,0,0,0.05,71.9,0)" xlink:href="#J"/><use transform="matrix(0.05,0,0,0.05,77.85000000000001,0)" xlink:href="#M"/><use transform="matrix(0.05,0,0,0.05,90.80000000000001,0)" xlink:href="#D"/><use transform="matrix(0.05,0,0,0.05,100.80000000000001,0)" xlink:href="#H"/><use transform="matrix(0.05,0,0,0.05,115.75,0)" xlink:href="#N"/><use transform="matrix(0.05,0,0,0.05,125.75,0)" xlink:href="#I"/><use transform="matrix(0.05,0,0,0.05,135.75,0)" xlink:href="#J"/></g><path fill="#3a414a" d="M127-220V0H93v-220H8v-28h204v28h-85" id="O"/><path fill="#3a414a" d="M179-190L93 31C79 59 56 82 12 73V49c39 6 53-20 64-50L1-190h34L92-34l54-156h33" id="P"/><path fill="#3a414a" d="M115-194c55 1 70 41 70 98S169 2 115 4C84 4 66-9 55-30l1 105H24l-1-265h31l2 30c10-21 28-34 59-34zm-8 174c40 0 45-34 45-75s-6-73-45-74c-42 0-51 32-51 76 0 43 10 73 51 73" id="Q"/><g id="d"><use transform="matrix(0.05,0,0,0.05,0,0)" xlink:href="#O"/><use transform="matrix(0.05,0,0,0.05,9.950000000000001,0)" xlink:href="#P"/><use transform="matrix(0.05,0,0,0.05,18.950000000000003,0)" xlink:href="#Q"/><use transform="matrix(0.05,0,0,0.05,28.950000000000003,0)" xlink:href="#I"/></g><path fill="#3a414a" d="M63-220v92h138v28H63V0H30v-248h175v28H63" id="R"/><path fill="#3a414a" d="M24-231v-30h32v30H24zM24 0v-190h32V0H24" id="S"/><path fill="#3a414a" d="M141-36C126-15 110 5 73 4 37 3 15-17 15-53c-1-64 63-63 125-63 3-35-9-54-41-54-24 1-41 7-42 31l-33-3c5-37 33-52 76-52 45 0 72 20 72 64v82c-1 20 7 32 28 27v20c-31 9-61-2-59-35zM48-53c0 20 12 33 32 33 41-3 63-29 60-74-43 2-92-5-92 41" id="T"/><g id="e"><use transform="matrix(0.05,0,0,0.05,0,0)" xlink:href="#R"/><use transform="matrix(0.05,0,0,0.05,10.950000000000001,0)" xlink:href="#S"/><use transform="matrix(0.05,0,0,0.05,14.9,0)" xlink:href="#J"/><use transform="matrix(0.05,0,0,0.05,20.85,0)" xlink:href="#E"/><use transform="matrix(0.05,0,0,0.05,29.85,0)" xlink:href="#F"/><use transform="matrix(0.05,0,0,0.05,34.85,0)" xlink:href="#M"/><use transform="matrix(0.05,0,0,0.05,47.800000000000004,0)" xlink:href="#T"/><use transform="matrix(0.05,0,0,0.05,57.800000000000004,0)" xlink:href="#H"/><use transform="matrix(0.05,0,0,0.05,72.75,0)" xlink:href="#I"/></g><path fill="#3a414a" d="M30 0v-248h33v221h125V0H30" id="U"/><g id="f"><use transform="matrix(0.05,0,0,0.05,0,0)" xlink:href="#U"/><use transform="matrix(0.05,0,0,0.05,10,0)" xlink:href="#T"/><use transform="matrix(0.05,0,0,0.05,20,0)" xlink:href="#E"/><use transform="matrix(0.05,0,0,0.05,29,0)" xlink:href="#F"/><use transform="matrix(0.05,0,0,0.05,34,0)" xlink:href="#M"/><use transform="matrix(0.05,0,0,0.05,46.95,0)" xlink:href="#T"/><use transform="matrix(0.05,0,0,0.05,56.95,0)" xlink:href="#H"/><use transform="matrix(0.05,0,0,0.05,71.9,0)" xlink:href="#I"/></g><path fill="#3a414a" d="M205 0l-28-72H64L36 0H1l101-248h38L239 0h-34zm-38-99l-47-123c-12 45-31 82-46 123h93" id="V"/><path fill="#3a414a" d="M85-194c31 0 48 13 60 33l-1-100h32l1 261h-30c-2-10 0-23-3-31C134-8 116 4 85 4 32 4 16-35 15-94c0-66 23-100 70-100zm9 24c-40 0-46 34-46 75 0 40 6 74 45 74 42 0 51-32 51-76 0-42-9-74-50-73" id="W"/><g id="g"><use transform="matrix(0.05,0,0,0.05,0,0)" xlink:href="#V"/><use transform="matrix(0.05,0,0,0.05,12,0)" xlink:href="#W"/><use transform="matrix(0.05,0,0,0.05,22,0)" xlink:href="#W"/><use transform="matrix(0.05,0,0,0.05,32,0)" xlink:href="#J"/><use transform="matrix(0.05,0,0,0.05,37.95,0)" xlink:href="#I"/><use transform="matrix(0.05,0,0,0.05,47.95,0)" xlink:href="#E"/><use transform="matrix(0.05,0,0,0.05,56.95,0)" xlink:href="#E"/></g><g id="h"><use transform="matrix(0.05,0,0,0.05,0,0)" xlink:href="#C"/><use transform="matrix(0.05,0,0,0.05,12.950000000000001,0)" xlink:href="#S"/><use transform="matrix(0.05,0,0,0.05,16.900000000000002,0)" xlink:href="#F"/><use transform="matrix(0.05,0,0,0.05,21.900000000000002,0)" xlink:href="#P"/></g><path fill="#3a414a" d="M24 0v-261h32V0H24" id="X"/><g id="i"><use transform="matrix(0.05,0,0,0.05,0,0)" xlink:href="#R"/><use transform="matrix(0.05,0,0,0.05,10.950000000000001,0)" xlink:href="#S"/><use transform="matrix(0.05,0,0,0.05,14.9,0)" xlink:href="#I"/><use transform="matrix(0.05,0,0,0.05,24.900000000000002,0)" xlink:href="#X"/><use transform="matrix(0.05,0,0,0.05,28.85,0)" xlink:href="#W"/></g><g id="j"><use transform="matrix(0.05,0,0,0.05,0,0)" xlink:href="#K"/><use transform="matrix(0.05,0,0,0.05,12,0)" xlink:href="#G"/><use transform="matrix(0.05,0,0,0.05,22,0)" xlink:href="#E"/><use transform="matrix(0.05,0,0,0.05,31,0)" xlink:href="#F"/><use transform="matrix(0.05,0,0,0.05,36,0)" xlink:href="#T"/><use transform="matrix(0.05,0,0,0.05,46,0)" xlink:href="#X"/><use transform="matrix(0.05,0,0,0.05,49.95,0)" xlink:href="#C"/><use transform="matrix(0.05,0,0,0.05,62.900000000000006,0)" xlink:href="#G"/><use transform="matrix(0.05,0,0,0.05,72.9,0)" xlink:href="#W"/><use transform="matrix(0.05,0,0,0.05,82.9,0)" xlink:href="#I"/></g><path fill="#3a414a" d="M106-169C34-169 62-67 57 0H25v-261h32l-1 103c12-21 28-36 61-36 89 0 53 116 60 194h-32v-121c2-32-8-49-39-48" id="Y"/><path fill="#3a414a" d="M117-194c89-4 53 116 60 194h-32v-121c0-31-8-49-39-48C34-167 62-67 57 0H25l-1-190h30c1 10-1 24 2 32 11-22 29-35 61-36" id="Z"/><g id="k"><use transform="matrix(0.05,0,0,0.05,0,0)" xlink:href="#K"/><use transform="matrix(0.05,0,0,0.05,12,0)" xlink:href="#Y"/><use transform="matrix(0.05,0,0,0.05,22,0)" xlink:href="#G"/><use transform="matrix(0.05,0,0,0.05,32,0)" xlink:href="#Z"/><use transform="matrix(0.05,0,0,0.05,42,0)" xlink:href="#I"/></g><path fill="#3a414a" d="M140-251c81 0 123 46 123 126C263-46 219 4 140 4 59 4 17-45 17-125s42-126 123-126zm0 227c63 0 89-41 89-101s-29-99-89-99c-61 0-89 39-89 99S79-25 140-24" id="aa"/><path fill="#3a414a" d="M30-248c118-7 216 8 213 122C240-48 200 0 122 0H30v-248zM63-27c89 8 146-16 146-99s-60-101-146-95v194" id="ab"/><g id="l"><use transform="matrix(0.05,0,0,0.05,0,0)" xlink:href="#aa"/><use transform="matrix(0.05,0,0,0.05,14,0)" xlink:href="#J"/><use transform="matrix(0.05,0,0,0.05,19.95,0)" xlink:href="#W"/><use transform="matrix(0.05,0,0,0.05,29.950000000000003,0)" xlink:href="#I"/><use transform="matrix(0.05,0,0,0.05,39.95,0)" xlink:href="#J"/><use transform="matrix(0.05,0,0,0.05,45.900000000000006,0)" xlink:href="#ab"/><use transform="matrix(0.05,0,0,0.05,58.85,0)" xlink:href="#I"/><use transform="matrix(0.05,0,0,0.05,68.85000000000001,0)" xlink:href="#F"/><use transform="matrix(0.05,0,0,0.05,73.85000000000001,0)" xlink:href="#T"/><use transform="matrix(0.05,0,0,0.05,83.85000000000001,0)" xlink:href="#S"/><use transform="matrix(0.05,0,0,0.05,87.80000000000001,0)" xlink:href="#X"/><use transform="matrix(0.05,0,0,0.05,91.75000000000001,0)" xlink:href="#E"/></g><path fill="#3a414a" d="M68-38c1 34 0 65-14 84H32c9-13 17-26 17-46H33v-38h35" id="ac"/><g id="m"><use transform="matrix(0.05,0,0,0.05,0,0)" xlink:href="#K"/><use transform="matrix(0.05,0,0,0.05,12,0)" xlink:href="#L"/><use transform="matrix(0.05,0,0,0.05,24,0)" xlink:href="#ac"/></g><path fill="#3a414a" d="M27 0v-27h64v-190l-56 39v-29l58-41h29v221h61V0H27" id="ad"/><g id="n"><use transform="matrix(0.05,0,0,0.05,0,0)" xlink:href="#R"/><use transform="matrix(0.05,0,0,0.05,10.950000000000001,0)" xlink:href="#L"/><use transform="matrix(0.05,0,0,0.05,22.950000000000003,0)" xlink:href="#ad"/></g><g id="o"><use transform="matrix(0.05,0,0,0.05,0,0)" xlink:href="#aa"/><use transform="matrix(0.05,0,0,0.05,14,0)" xlink:href="#J"/><use transform="matrix(0.05,0,0,0.05,19.95,0)" xlink:href="#W"/><use transform="matrix(0.05,0,0,0.05,29.950000000000003,0)" xlink:href="#I"/><use transform="matrix(0.05,0,0,0.05,39.95,0)" xlink:href="#J"/><use transform="matrix(0.05,0,0,0.05,45.900000000000006,0)" xlink:href="#M"/><use transform="matrix(0.05,0,0,0.05,58.85,0)" xlink:href="#D"/><use transform="matrix(0.05,0,0,0.05,68.85000000000001,0)" xlink:href="#H"/><use transform="matrix(0.05,0,0,0.05,83.80000000000001,0)" xlink:href="#N"/><use transform="matrix(0.05,0,0,0.05,93.80000000000001,0)" xlink:href="#I"/><use transform="matrix(0.05,0,0,0.05,103.80000000000001,0)" xlink:href="#J"/></g><path fill="#3a414a" d="M101-251c82-7 93 87 43 132L82-64C71-53 59-42 53-27h129V0H18c2-99 128-94 128-182 0-28-16-43-45-43s-46 15-49 41l-32-3c6-41 34-60 81-64" id="ae"/><g id="p"><use transform="matrix(0.05,0,0,0.05,0,0)" xlink:href="#R"/><use transform="matrix(0.05,0,0,0.05,10.950000000000001,0)" xlink:href="#L"/><use transform="matrix(0.05,0,0,0.05,22.950000000000003,0)" xlink:href="#ae"/></g><path fill="#3a414a" d="M33 0v-248h34V0H33" id="af"/><g id="q"><use transform="matrix(0.05,0,0,0.05,0,0)" xlink:href="#af"/><use transform="matrix(0.05,0,0,0.05,5,0)" xlink:href="#F"/><use transform="matrix(0.05,0,0,0.05,10,0)" xlink:href="#I"/><use transform="matrix(0.05,0,0,0.05,20,0)" xlink:href="#H"/><use transform="matrix(0.05,0,0,0.05,34.95,0)" xlink:href="#M"/><use transform="matrix(0.05,0,0,0.05,47.900000000000006,0)" xlink:href="#D"/><use transform="matrix(0.05,0,0,0.05,57.900000000000006,0)" xlink:href="#H"/><use transform="matrix(0.05,0,0,0.05,72.85000000000001,0)" xlink:href="#N"/><use transform="matrix(0.05,0,0,0.05,82.85000000000001,0)" xlink:href="#I"/><use transform="matrix(0.05,0,0,0.05,92.85000000000001,0)" xlink:href="#J"/></g><path fill="#3a414a" d="M140-251c81 0 123 46 123 126C263-53 228-8 163 1c7 30 30 48 69 40v23c-55 16-95-15-103-61C56-3 17-48 17-125c0-80 42-126 123-126zm0 227c63 0 89-41 89-101s-29-99-89-99c-61 0-89 39-89 99S79-25 140-24" id="ag"/><g id="r"><use transform="matrix(0.05,0,0,0.05,0,0)" xlink:href="#ag"/><use transform="matrix(0.05,0,0,0.05,14,0)" xlink:href="#D"/><use transform="matrix(0.05,0,0,0.05,24,0)" xlink:href="#T"/><use transform="matrix(0.05,0,0,0.05,34,0)" xlink:href="#Z"/><use transform="matrix(0.05,0,0,0.05,44,0)" xlink:href="#F"/><use transform="matrix(0.05,0,0,0.05,49,0)" xlink:href="#S"/><use transform="matrix(0.05,0,0,0.05,52.95,0)" xlink:href="#F"/><use transform="matrix(0.05,0,0,0.05,57.95,0)" xlink:href="#P"/></g><path fill="#3a414a" d="M96-169c-40 0-48 33-48 73s9 75 48 75c24 0 41-14 43-38l32 2c-6 37-31 61-74 61-59 0-76-41-82-99-10-93 101-131 147-64 4 7 5 14 7 22l-32 3c-4-21-16-35-41-35" id="ah"/><g id="s"><use transform="matrix(0.05,0,0,0.05,0,0)" xlink:href="#K"/><use transform="matrix(0.05,0,0,0.05,12,0)" xlink:href="#J"/><use transform="matrix(0.05,0,0,0.05,17.95,0)" xlink:href="#S"/><use transform="matrix(0.05,0,0,0.05,21.9,0)" xlink:href="#ah"/><use transform="matrix(0.05,0,0,0.05,30.899999999999995,0)" xlink:href="#I"/></g><g id="t"><use transform="matrix(0.05,0,0,0.05,0,0)" xlink:href="#V"/><use transform="matrix(0.05,0,0,0.05,12,0)" xlink:href="#H"/><use transform="matrix(0.05,0,0,0.05,26.950000000000003,0)" xlink:href="#G"/><use transform="matrix(0.05,0,0,0.05,36.95,0)" xlink:href="#D"/><use transform="matrix(0.05,0,0,0.05,46.95,0)" xlink:href="#Z"/><use transform="matrix(0.05,0,0,0.05,56.95,0)" xlink:href="#F"/></g><g id="u"><use transform="matrix(0.05,0,0,0.05,0,0)" xlink:href="#aa"/><use transform="matrix(0.05,0,0,0.05,14,0)" xlink:href="#J"/><use transform="matrix(0.05,0,0,0.05,19.95,0)" xlink:href="#W"/><use transform="matrix(0.05,0,0,0.05,29.950000000000003,0)" xlink:href="#I"/><use transform="matrix(0.05,0,0,0.05,39.95,0)" xlink:href="#J"/></g><g id="v"><use transform="matrix(0.05,0,0,0.05,0,0)" xlink:href="#ab"/><use transform="matrix(0.05,0,0,0.05,12.950000000000001,0)" xlink:href="#T"/><use transform="matrix(0.05,0,0,0.05,22.950000000000003,0)" xlink:href="#F"/><use transform="matrix(0.05,0,0,0.05,27.950000000000003,0)" xlink:href="#I"/></g><path fill="#3a414a" d="M185-189c-5-48-123-54-124 2 14 75 158 14 163 119 3 78-121 87-175 55-17-10-28-26-33-46l33-7c5 56 141 63 141-1 0-78-155-14-162-118-5-82 145-84 179-34 5 7 8 16 11 25" id="ai"/><g id="w"><use transform="matrix(0.05,0,0,0.05,0,0)" xlink:href="#ai"/><use transform="matrix(0.05,0,0,0.05,12,0)" xlink:href="#D"/><use transform="matrix(0.05,0,0,0.05,22,0)" xlink:href="#N"/><use transform="matrix(0.05,0,0,0.05,32,0)" xlink:href="#F"/><use transform="matrix(0.05,0,0,0.05,37,0)" xlink:href="#G"/><use transform="matrix(0.05,0,0,0.05,47,0)" xlink:href="#F"/><use transform="matrix(0.05,0,0,0.05,52,0)" xlink:href="#T"/><use transform="matrix(0.05,0,0,0.05,62,0)" xlink:href="#X"/></g><path fill="#3a414a" d="M143 4C61 4 22-44 18-125c-5-107 100-154 193-111 17 8 29 25 37 43l-32 9c-13-25-37-40-76-40-61 0-88 39-88 99 0 61 29 100 91 101 35 0 62-11 79-27v-45h-74v-28h105v86C228-13 192 4 143 4" id="aj"/><g id="x"><use transform="matrix(0.05,0,0,0.05,0,0)" xlink:href="#aj"/><use transform="matrix(0.05,0,0,0.05,14,0)" xlink:href="#ai"/><use transform="matrix(0.05,0,0,0.05,26,0)" xlink:href="#O"/></g><g id="y"><use transform="matrix(0.05,0,0,0.05,0,0)" xlink:href="#O"/><use transform="matrix(0.05,0,0,0.05,8.950000000000001,0)" xlink:href="#G"/><use transform="matrix(0.05,0,0,0.05,18.950000000000003,0)" xlink:href="#F"/><use transform="matrix(0.05,0,0,0.05,23.950000000000003,0)" xlink:href="#T"/><use transform="matrix(0.05,0,0,0.05,33.95,0)" xlink:href="#X"/></g><g id="z"><use transform="matrix(0.05,0,0,0.05,0,0)" xlink:href="#R"/><use transform="matrix(0.05,0,0,0.05,10.950000000000001,0)" xlink:href="#L"/></g><g id="A"><use transform="matrix(0.05,0,0,0.05,0,0)" xlink:href="#af"/><use transform="matrix(0.05,0,0,0.05,5,0)" xlink:href="#F"/><use transform="matrix(0.05,0,0,0.05,10,0)" xlink:href="#I"/><use transform="matrix(0.05,0,0,0.05,20,0)" xlink:href="#H"/></g><g id="B"><use transform="matrix(0.05,0,0,0.05,0,0)" xlink:href="#ab"/><use transform="matrix(0.05,0,0,0.05,12.950000000000001,0)" xlink:href="#I"/><use transform="matrix(0.05,0,0,0.05,22.950000000000003,0)" xlink:href="#E"/><use transform="matrix(0.05,0,0,0.05,31.950000000000003,0)" xlink:href="#ah"/><use transform="matrix(0.05,0,0,0.05,40.95,0)" xlink:href="#J"/><use transform="matrix(0.05,0,0,0.05,46.900000000000006,0)" xlink:href="#S"/><use transform="matrix(0.05,0,0,0.05,50.85000000000001,0)" xlink:href="#Q"/><use transform="matrix(0.05,0,0,0.05,60.85,0)" xlink:href="#F"/><use transform="matrix(0.05,0,0,0.05,65.85000000000001,0)" xlink:href="#S"/><use transform="matrix(0.05,0,0,0.05,69.80000000000001,0)" xlink:href="#G"/><use transform="matrix(0.05,0,0,0.05,79.80000000000001,0)" xlink:href="#Z"/></g></defs></g></svg>